<?xml version="1.0" encoding="UTF-8"?>
<svg width="524px" height="872px" viewBox="0 0 524 872" version="1.1" xmlns="http://www.w3.org/2000/svg" xmlns:xlink="http://www.w3.org/1999/xlink">
    <!-- Generator: Sketch 43.2 (39069) - http://www.bohemiancoding.com/sketch -->
    <title>phone-1</title>
    <desc>Created with Sketch.</desc>
    <defs>
        <rect id="path-1" x="0" y="0" width="223" height="463" rx="35"></rect>
        <rect id="path-2" x="15" y="15" width="193" height="432" rx="22"></rect>
        <rect id="path-4" x="31" y="68" width="161" height="218"></rect>
        <rect id="path-5" x="31" y="258" width="161" height="28"></rect>
        <rect id="path-6" x="0" y="58" width="195" height="30"></rect>
        <rect id="path-7" x="0" y="0" width="66" height="30"></rect>
        <rect id="path-8" x="0" y="29" width="66" height="30"></rect>
        <rect id="path-9" x="129" y="0" width="66" height="30"></rect>
        <rect id="path-10" x="64" y="0" width="66" height="59"></rect>
        <rect id="path-11" x="78" y="13" width="36" height="36"></rect>
        <rect id="path-12" x="129" y="29" width="66" height="30"></rect>
        <rect id="path-13" x="0" y="87" width="195" height="30"></rect>
        <rect id="path-14" x="0" y="116" width="195" height="30"></rect>
        <rect id="path-15" x="0" y="145" width="195" height="30"></rect>
        <circle id="path-16" cx="110" cy="775" r="14"></circle>
    </defs>
    <g id="illustrations" stroke="none" stroke-width="1" fill="none" fill-rule="evenodd">
        <g id="devices" transform="translate(-667.000000, -85.000000)">
            <g id="phone-1" transform="translate(661.000000, 86.000000)">
                <g id="phone" transform="translate(265.000000, 435.000000) scale(-1, 1) translate(-265.000000, -435.000000) ">
                    <path d="M277.679687,824.265625 C277.679687,824.265625 287.558594,772.148438 298.355469,750.847656 C309.152344,729.546875 312.148438,722.453125 312.148438,722.453125 C312.148438,722.453125 376.027344,631.84375 401.105469,597.871094 C426.183594,563.898438 452.707031,448.027344 452.707031,448.027344 L258.734375,355.449219 L248.25,185.742187 C248.25,185.742187 246.917969,168.578125 232.453125,159.464844 C217.988281,150.351562 201.933594,152.128906 201.933594,152.128906 L196,222.251953 L149.136719,372.863281 C149.136719,372.863281 138.523438,388.65625 139.066406,436.082031 C139.609375,483.507812 140.507812,534.789062 137.050781,577.847656 C133.59375,620.90625 135.242188,618.53125 127.589844,632.390625 C119.9375,646.25 41.109375,840.699219 41.109375,840.699219" id="hand" stroke="#DBDBDB" fill="#FFFFFF"></path>
                    <path d="M502.425781,374.517578 C502.425781,374.517578 516.986328,384.822266 518.697266,389.873047 C520.408203,394.923828 525.966797,407.648438 519.949219,418.589844 C513.931641,429.53125 497.9375,452.576172 493.275391,458.220703 C488.613281,463.865234 475.130859,472.625 457.103516,458.220703 C439.076172,443.816406 449.017578,406.982422 449.017578,406.982422 L482.248047,376.53125 L502.425781,374.517578 Z" id="hand" stroke="#DBDBDB" fill="#FFFFFF"></path>
                    <path d="M497.769531,291.888672 L507.476562,300.570312 C507.476562,300.570312 521.277344,320.052734 521.277344,327.779297 C521.277344,335.505859 511.744141,357.275391 507.615234,367.105469 C503.486328,376.935547 497.265625,398.376953 497.265625,398.376953 C497.265625,398.376953 486.244141,408.164062 467.351562,398.009766 C448.458984,387.855469 439.693359,357.808594 439.693359,357.808594 L453.173828,317.662109 L497.769531,291.888672 Z" id="hand" stroke="#DBDBDB" fill="#FFFFFF"></path>
                    <path d="M480.744141,224.833984 C486.484375,227.361328 501.388672,243.759766 501.388672,252.869141 C501.388672,261.978516 501.681641,269.935547 501.535156,274.777344 C501.388672,279.619141 503.669922,309.898438 503.669922,309.898438 C503.669922,309.898438 497.3125,320.871094 478.326172,317.320312 C459.339844,313.769531 450.935547,302.144531 450.935547,302.144531 L445.847656,217.037109 C445.847656,217.037109 475.003906,222.306641 480.744141,224.833984 Z" id="hand" stroke="#DBDBDB" fill="#FFFFFF"></path>
                    <path d="M451.826172,118.376953 L512.244141,117.279297 C512.244141,117.279297 520.115234,121.302734 520.115234,135.927734 C520.115234,150.552734 510.882812,161.09375 494.261719,167.8125 C477.640625,174.53125 450.601562,183.152344 450.601562,183.152344 L451.826172,118.376953 Z" id="hand" stroke="#DBDBDB" fill="#FFFFFF" transform="translate(485.358398, 150.215820) rotate(-21.000000) translate(-485.358398, -150.215820) "></path>
                    <path d="M270.66846,454.503906 L318.210938,454.503906 C318.210938,454.503906 336.3125,490.027344 327.261719,527.089844 C318.210938,564.152344 289.929688,593.332031 289.929688,593.332031" id="hand" stroke="#DBDBDB" fill="#FFFFFF"></path>
                    <g id="device" transform="translate(242.000000, 0.000000)">
                        <g id="phone">
                            <use fill="#FFFFFF" fill-rule="evenodd" xlink:href="#path-1"></use>
                            <rect stroke="#D0D0D0" stroke-width="1" x="-0.5" y="-0.5" width="224" height="464" rx="35"></rect>
                        </g>
                        <mask id="mask-3" fill="white">
                            <use xlink:href="#path-2"></use>
                        </mask>
                        <g id="phone">
                            <use fill="#FFFFFF" fill-rule="evenodd" xlink:href="#path-2"></use>
                            <rect stroke="#EEEEEE" stroke-width="1" x="14.5" y="14.5" width="194" height="433" rx="22"></rect>
                        </g>
                        <rect id="Rectangle-2" fill="#EFEFEF" mask="url(#mask-3)" x="92" y="31" width="40" height="4" rx="2"></rect>
                        <path d="M91,45 L94.2011719,45 L95.4365234,49.7910156 L96.6665039,45 L99.8569336,45 L99.8569336,52.8740234 L97.8696289,52.8740234 L97.8696289,46.8691406 L96.328125,52.8740234 L94.5288086,52.8740234 L92.9926758,46.8691406 L92.9926758,52.8740234 L91,52.8740234 L91,45 Z M106.533203,45 L108.960938,45 L108.960938,49.6943359 C108.960938,50.1598331 108.888428,50.5993632 108.743408,51.0129395 C108.598388,51.4265157 108.371014,51.7881658 108.061279,52.0979004 C107.751545,52.407635 107.426597,52.6251621 107.086426,52.7504883 C106.613767,52.9259449 106.046227,53.0136719 105.383789,53.0136719 C105.000649,53.0136719 104.582603,52.9868167 104.129639,52.9331055 C103.676674,52.8793943 103.298016,52.7728686 102.993652,52.6135254 C102.689289,52.4541821 102.41089,52.2277033 102.158447,51.934082 C101.906005,51.6404608 101.733236,51.3378922 101.640137,51.0263672 C101.489745,50.5250626 101.414551,50.0810566 101.414551,49.6943359 L101.414551,45 L103.842285,45 L103.842285,49.8071289 C103.842285,50.2368186 103.961343,50.5725086 104.199463,50.814209 C104.437583,51.0559094 104.767902,51.1767578 105.19043,51.1767578 C105.609377,51.1767578 105.937906,51.0576998 106.176025,50.8195801 C106.414145,50.5814604 106.533203,50.24398 106.533203,49.8071289 L106.533203,45 Z M110.583008,45 L113.016113,45 L113.016113,47.9755859 L115.567383,45 L118.800781,45 L115.932617,47.9702148 L118.929688,52.8740234 L115.932617,52.8740234 L114.272949,49.6352539 L113.016113,50.9511719 L113.016113,52.8740234 L110.583008,52.8740234 L110.583008,45 Z M119.832031,45 L122.270508,45 L122.270508,52.8740234 L119.832031,52.8740234 L119.832031,45 Z M128.86084,51.5742188 L126.089355,51.5742188 L125.708008,52.8740234 L123.221191,52.8740234 L126.180664,45 L128.833984,45 L131.793457,52.8740234 L129.247559,52.8740234 L128.86084,51.5742188 Z M128.350586,49.871582 L127.480469,47.0410156 L126.615723,49.871582 L128.350586,49.871582 Z" id="MUKIA" fill="#000000" opacity="0.0862771739" mask="url(#mask-3)" transform="translate(111.396729, 49.006836) scale(-1, 1) translate(-111.396729, -49.006836) "></path>
                        <g id="bg" mask="url(#mask-3)">
                            <use fill="#FFFFFF" fill-rule="evenodd" xlink:href="#path-4"></use>
                            <rect stroke="#DBDBDB" stroke-width="1" x="30.5" y="67.5" width="162" height="219"></rect>
                        </g>
                        <g id="bg" opacity="0.599999964" mask="url(#mask-3)">
                            <use fill="#FFFFFF" fill-rule="evenodd" xlink:href="#path-5"></use>
                            <rect stroke="#DBDBDB" stroke-width="1" x="30.5" y="257.5" width="162" height="29"></rect>
                        </g>
                        <g id="keyboard" opacity="0.300000012" mask="url(#mask-3)">
                            <g transform="translate(14.000000, 302.000000)" id="bg">
                                <g stroke="none">
                                    <use fill="#FFFFFF" fill-rule="evenodd" xlink:href="#path-6"></use>
                                    <rect stroke="#DBDBDB" stroke-width="1" x="0.5" y="58.5" width="194" height="29"></rect>
                                </g>
                                <g stroke="none">
                                    <use fill="#FFFFFF" fill-rule="evenodd" xlink:href="#path-7"></use>
                                    <rect stroke="#DBDBDB" stroke-width="1" x="0.5" y="0.5" width="65" height="29"></rect>
                                </g>
                                <g stroke="none">
                                    <use fill="#FFFFFF" fill-rule="evenodd" xlink:href="#path-8"></use>
                                    <rect stroke="#DBDBDB" stroke-width="1" x="0.5" y="29.5" width="65" height="29"></rect>
                                </g>
                                <g stroke="none">
                                    <use fill="#FFFFFF" fill-rule="evenodd" xlink:href="#path-9"></use>
                                    <rect stroke="#DBDBDB" stroke-width="1" x="129.5" y="0.5" width="65" height="29"></rect>
                                </g>
                                <g stroke="none" transform="translate(97.000000, 29.500000) scale(-1, 1) translate(-97.000000, -29.500000) ">
                                    <use fill="#FFFFFF" fill-rule="evenodd" xlink:href="#path-10"></use>
                                    <rect stroke="#DBDBDB" stroke-width="1" x="64.5" y="0.5" width="65" height="58"></rect>
                                </g>
                                <g stroke="none" transform="translate(96.000000, 31.000000) scale(-1, 1) translate(-96.000000, -31.000000) ">
                                    <use fill="#FFFFFF" fill-rule="evenodd" xlink:href="#path-11"></use>
                                    <rect stroke="#DBDBDB" stroke-width="1" x="78.5" y="13.5" width="35" height="35"></rect>
                                </g>
                                <g stroke="none">
                                    <use fill="#FFFFFF" fill-rule="evenodd" xlink:href="#path-12"></use>
                                    <rect stroke="#DBDBDB" stroke-width="1" x="129.5" y="29.5" width="65" height="29"></rect>
                                </g>
                                <g stroke="none">
                                    <use fill="#FFFFFF" fill-rule="evenodd" xlink:href="#path-13"></use>
                                    <rect stroke="#DBDBDB" stroke-width="1" x="0.5" y="87.5" width="194" height="29"></rect>
                                </g>
                                <g stroke="none">
                                    <use fill="#FFFFFF" fill-rule="evenodd" xlink:href="#path-14"></use>
                                    <rect stroke="#DBDBDB" stroke-width="1" x="0.5" y="116.5" width="194" height="29"></rect>
                                </g>
                                <g stroke="none">
                                    <use fill="#FFFFFF" fill-rule="evenodd" xlink:href="#path-15"></use>
                                    <rect stroke="#DBDBDB" stroke-width="1" x="0.5" y="145.5" width="194" height="29"></rect>
                                </g>
                                <rect stroke="#DBDBDB" stroke-width="1" transform="translate(97.000000, 73.000000) scale(-1, 1) translate(-97.000000, -73.000000) " x="64.5" y="0.5" width="65" height="145"></rect>
                            </g>
                        </g>
                    </g>
                    <path d="M290.612667,804.140625 L314.304687,741.195312 C314.304687,741.195312 234.662678,718.003906 187.300537,698.378906 C139.938395,678.753906 112.799662,658.183594 112.799662,658.183594 L41.7773438,790.625" id="top" stroke="#DEDEDE" fill="#FFFFFF"></path>
                    <path d="M273.045335,869.722656 L311.839844,765.5 C311.839844,765.5 256.635524,751.007812 204.320312,731.382812 C152.005101,711.757812 99.0927489,679.183594 99.0927489,679.183594 L0.9375,860.542969" id="top" stroke="#DEDEDE" fill="#FFFFFF"></path>
                    <path d="M133.828125,728.976562 L88.3515625,804.570312" id="top" stroke="#DEDEDE"></path>
                    <g id="bg">
                        <use fill="#FFFFFF" fill-rule="evenodd" xlink:href="#path-16"></use>
                        <circle stroke="#DEDEDE" stroke-width="1" cx="110" cy="775" r="14.5"></circle>
                    </g>
                </g>
            </g>
        </g>
    </g>
</svg>