<?xml version="1.0" encoding="UTF-8"?>
<svg width="524px" height="872px" viewBox="0 0 524 872" version="1.1" xmlns="http://www.w3.org/2000/svg" xmlns:xlink="http://www.w3.org/1999/xlink">
    <!-- Generator: Sketch 43.2 (39069) - http://www.bohemiancoding.com/sketch -->
    <title>phone-1</title>
    <desc>Created with Sketch.</desc>
    <defs>
        <rect id="path-1" x="0" y="0" width="250" height="510" rx="24"></rect>
        <rect id="path-2" x="16" y="64" width="218" height="386" rx="2"></rect>
        <rect id="path-3" x="6" y="34" width="238" height="436" rx="2"></rect>
        <rect id="path-4" x="6" y="430" width="238" height="40"></rect>
    </defs>
    <g id="illustrations" stroke="none" stroke-width="1" fill="none" fill-rule="evenodd">
        <g id="devices" transform="translate(-1262.000000, -90.000000)">
            <g id="phone-1" transform="translate(1262.000000, 91.000000)">
                <g id="phone" transform="translate(260.000000, 418.000000) scale(-1, 1) translate(-260.000000, -418.000000) ">
                    <path d="M236.679687,819.265625 C236.679687,819.265625 246.558594,767.148438 257.355469,745.847656 C268.152344,724.546875 271.148438,717.453125 271.148438,717.453125 C271.148438,717.453125 341.0625,640.792969 366.140625,606.820312 C391.21875,572.847656 434.175781,486.53125 434.175781,486.53125 L217.734375,350.449219 L207.25,180.742187 L207.25,180.742187 C207.25,180.742187 205.917969,163.578125 191.453125,154.464844 C176.988281,145.351562 160.933594,147.128906 160.933594,147.128906 L155,217.251953 L108.136719,367.863281 C108.136719,367.863281 97.5234375,383.65625 98.0664062,431.082031 C98.609375,478.507812 99.5078125,529.789062 96.0507812,572.847656 C92.59375,615.90625 94.2421875,613.53125 86.5898438,627.390625 C78.9375,641.25 0.109375,835.699219 0.109375,835.699219" id="hand" stroke="#DBDBDB" fill="#FFFFFF"></path>
                    <path d="M491.425781,369.517578 C491.425781,369.517578 505.986328,379.822266 507.697266,384.873047 C509.408203,389.923828 514.966797,402.648438 508.949219,413.589844 C502.931641,424.53125 486.9375,447.576172 482.275391,453.220703 C477.613281,458.865234 464.130859,467.625 446.103516,453.220703 C428.076172,438.816406 438.017578,401.982422 438.017578,401.982422 L471.248047,371.53125 L491.425781,369.517578 Z" id="hand" stroke="#DBDBDB" fill="#FFFFFF"></path>
                    <path d="M486.769531,286.888672 L496.476562,295.570312 C496.476562,295.570312 510.277344,315.052734 510.277344,322.779297 C510.277344,330.505859 500.744141,352.275391 496.615234,362.105469 C492.486328,371.935547 486.265625,393.376953 486.265625,393.376953 C486.265625,393.376953 475.244141,403.164062 456.351562,393.009766 C437.458984,382.855469 428.693359,352.808594 428.693359,352.808594 L442.173828,312.662109 L486.769531,286.888672 Z" id="hand" stroke="#DBDBDB" fill="#FFFFFF"></path>
                    <path d="M469.744141,219.833984 C475.484375,222.361328 490.388672,238.759766 490.388672,247.869141 C490.388672,256.978516 490.681641,264.935547 490.535156,269.777344 C490.388672,274.619141 492.669922,304.898438 492.669922,304.898438 C492.669922,304.898438 486.3125,315.871094 467.326172,312.320312 C448.339844,308.769531 439.935547,297.144531 439.935547,297.144531 L436.390625,233.507812 C436.390625,233.507812 464.003906,217.306641 469.744141,219.833984 Z" id="hand" stroke="#DBDBDB" fill="#FFFFFF"></path>
                    <path d="M450.826172,163.376953 L511.244141,162.279297 C511.244141,162.279297 519.115234,166.302734 519.115234,180.927734 C519.115234,195.552734 509.882812,206.09375 493.261719,212.8125 C476.640625,219.53125 449.601562,228.152344 449.601562,228.152344 L450.826172,163.376953 Z" id="hand" stroke="#DBDBDB" fill="#FFFFFF"></path>
                    <path d="M219.66846,489.503906 L267.210938,489.503906 C267.210938,489.503906 285.3125,525.027344 276.261719,562.089844 C267.210938,599.152344 238.929688,628.332031 238.929688,628.332031" id="hand" stroke="#DBDBDB" fill="#FFFFFF"></path>
                    <g id="device" transform="translate(204.000000, 0.000000)">
                        <g id="phone">
                            <use fill="#FFFFFF" fill-rule="evenodd" xlink:href="#path-1"></use>
                            <rect stroke="#D0D0D0" stroke-width="1" x="-0.5" y="-0.5" width="251" height="511" rx="24"></rect>
                        </g>
                        <rect id="sound" fill-opacity="0.201681386" fill="#AFAFAF" x="75" y="15" width="100" height="4" rx="2"></rect>
                        <rect id="sound" fill-opacity="0.201681386" fill="#AFAFAF" x="65" y="486" width="120" height="8" rx="4"></rect>
                        <circle id="cam" fill-opacity="0.201681386" fill="#AFAFAF" cx="195.5" cy="17.5" r="4.5"></circle>
                        <g id="screen">
                            <use fill="#FFFFFF" fill-rule="evenodd" xlink:href="#path-2"></use>
                            <rect stroke="#DBDBDB" stroke-width="1" x="16.5" y="64.5" width="217" height="385" rx="2"></rect>
                        </g>
                        <g id="Rectangle">
                            <use fill="#FFFFFF" fill-rule="evenodd" xlink:href="#path-3"></use>
                            <rect stroke="#DBDBDB" stroke-width="1" x="6.5" y="34.5" width="237" height="435" rx="2"></rect>
                        </g>
                        <g id="Rectangle" opacity="0.51783288">
                            <use fill="#FFFFFF" fill-rule="evenodd" xlink:href="#path-4"></use>
                            <rect stroke="#DBDBDB" stroke-width="1" x="6.5" y="430.5" width="237" height="39"></rect>
                        </g>
                        <rect id="line" fill="#D8D8D8" opacity="0.339051178" x="6" y="74" width="238" height="1"></rect>
                        <text id="hedwig" opacity="0.100000001" transform="translate(195.000000, 54.500000) scale(-1, 1) translate(-195.000000, -54.500000) " font-family="ArialMT, Arial" font-size="13" font-weight="normal" fill="#000000">
                            <tspan x="174.401855" y="59">hedwig</tspan>
                        </text>
                        <path d="M21.5,51 C20.6715729,51 20,50.3284271 20,49.5 C20,48.6715729 20.6715729,48 21.5,48 C22.3284271,48 23,48.6715729 23,49.5 C23,50.3284271 22.3284271,51 21.5,51 Z M21.5,56 C20.6715729,56 20,55.3284271 20,54.5 C20,53.6715729 20.6715729,53 21.5,53 C22.3284271,53 23,53.6715729 23,54.5 C23,55.3284271 22.3284271,56 21.5,56 Z M21.5,61 C20.6715729,61 20,60.3284271 20,59.5 C20,58.6715729 20.6715729,58 21.5,58 C22.3284271,58 23,58.6715729 23,59.5 C23,60.3284271 22.3284271,61 21.5,61 Z" id="more" fill="#EFEFEF"></path>
                        <polyline id="arrow" stroke="#979797" stroke-width="2" opacity="0.179999992" points="226.033232 47 233 54.4824287 226 62"></polyline>
                    </g>
                </g>
            </g>
        </g>
    </g>
</svg>