<?xml version="1.0" encoding="UTF-8"?>
<svg width="18px" height="17px" viewBox="0 0 18 17" version="1.1" xmlns="http://www.w3.org/2000/svg" xmlns:xlink="http://www.w3.org/1999/xlink">
    <!-- Generator: Sketch 43.2 (39069) - http://www.bohemiancoding.com/sketch -->
    <title>hedwig</title>
    <desc>Created with Sketch.</desc>
    <defs>
        <path d="M0,8.01709941 C0,12.9782184 4.02943725,17 9,17 C13.9705627,17 18,12.9782184 18,8.01709941 L18,0 L0.0169281675,0 L0,8.01709941 Z" id="path-1"></path>
        <polygon id="path-2" points="9.00627958 8.06689225 12 11.0606127 8.99372042 14.0668922 6 11.0731718"></polygon>
        <circle id="path-3" cx="5.16666667" cy="5.16666667" r="4.5"></circle>
        <circle id="path-5" cx="4.5" cy="4.5" r="4.5"></circle>
    </defs>
    <g id="illustrations" stroke="none" stroke-width="1" fill="none" fill-rule="evenodd">
        <g id="home-v1" transform="translate(-665.000000, -28.000000)">
            <g id="header" transform="translate(330.000000, 26.000000)">
                <g id="logo" transform="translate(335.000000, 0.000000)">
                    <g id="hedwig" transform="translate(0.000000, 2.000000)">
                        <g id="shape">
                            <use fill-opacity="0.1" fill="#4CD964" fill-rule="evenodd" xlink:href="#path-1"></use>
                            <path stroke="#4CD964" stroke-width="1" d="M0.5,8.01709941 L0.499998885,8.01815516 L0.5,8.01709941 Z M0.500000013,8.01762101 L0.515873528,0.5 L17.5,0.5 L17.5,8.01709941 C17.5,12.701863 13.694633,16.5 9,16.5 C4.30554083,16.5 0.500281818,12.7021442 0.500000016,8.01761982 L0.500000013,8.01762101 Z"></path>
                        </g>
                        <g id="shape">
                            <use fill="#FFFFFF" fill-rule="evenodd" xlink:href="#path-2"></use>
                            <path stroke="#4CD964" stroke-width="1" d="M9.00627958,8.77399903 L11.2928932,11.0606127 L8.99372042,13.3597855 L6.70710678,11.0731718 L9.00627958,8.77399903 Z"></path>
                        </g>
                        <g id="eye" transform="translate(8.000000, 2.000000)">
                            <g transform="translate(0.333333, 0.333333)">
                                <mask id="mask-4" fill="white">
                                    <use xlink:href="#path-3"></use>
                                </mask>
                                <g id="Oval-Copy-2">
                                    <use fill="#FFFFFF" fill-rule="evenodd" xlink:href="#path-3"></use>
                                    <circle stroke="#4CD964" stroke-width="1" cx="5.16666667" cy="5.16666667" r="4"></circle>
                                </g>
                                <circle id="Oval-2" fill="#4CD964" mask="url(#mask-4)" cx="5.16666667" cy="5.16666667" r="1.5"></circle>
                            </g>
                        </g>
                        <g id="eye" transform="translate(0.000000, 3.000000)">
                            <g>
                                <mask id="mask-6" fill="white">
                                    <use xlink:href="#path-5"></use>
                                </mask>
                                <g id="Oval-Copy-2">
                                    <use fill="#FFFFFF" fill-rule="evenodd" xlink:href="#path-5"></use>
                                    <circle stroke="#4CD964" stroke-width="1" cx="4.5" cy="4.5" r="4"></circle>
                                </g>
                                <circle id="Oval-2" fill="#4CD964" mask="url(#mask-6)" cx="4.5" cy="4.5" r="1.5"></circle>
                            </g>
                        </g>
                        <path d="M9,9 C8.76927367,4.54075481 5.27577552,1 1,1" id="line" stroke="#4CD964" stroke-linecap="round" stroke-linejoin="round" transform="translate(5.000000, 5.000000) scale(-1, 1) rotate(-90.000000) translate(-5.000000, -5.000000) "></path>
                        <path d="M17,9 C16.7905244,4.54464785 13.2889177,1 9,1" id="line" stroke="#4CD964" stroke-linecap="round" stroke-linejoin="round" transform="translate(13.000000, 5.000000) rotate(-90.000000) translate(-13.000000, -5.000000) "></path>
                    </g>
                </g>
            </g>
        </g>
    </g>
</svg>